.
..............................Site Info...........................

 -   http://www.scenetime.com  *_*   

SceneTime is going to Close sign up on march/1, hurry up! get in before the doors are closed.

     We care to share . Join us on  http://www.scenetime.com 

    Be the first to get new release at  http://www.scenetime.com

        Seed back for speed


...................................NFO:.................................................[IMG]http://i.imgur.com/2mcr9.png[/IMG]

 
TITLE: 

Goon 2011 HDRiP AC3 XViD - INSPiRAL

IMDB: 
 
http://www.imdb.com/title/tt1456635/

SOURCES:

VIDEO - SiC 720p THANKS
AUDIO - SiC 720p THANKS
SUBS  - Already HC when needed

STATS:

Video
ID                               : 0
Format                           : MPEG-4 Visual
Format profile                   : Advanced Simple@L5
Format settings, BVOP            : 2
Format settings, QPel            : No
Format settings, GMC             : No warppoints
Format settings, Matrix          : Default (MPEG)
Muxing mode                      : Packed bitstream
Codec ID                         : XVID
Codec ID/Hint                    : XviD
Duration                         : 1h 31mn
Bit rate                         : 1 740 Kbps
Width                            : 720 pixels
Height                           : 400 pixels
Display aspect ratio             : 16:9
Frame rate                       : 23.976 fps
Color space                      : YUV
Chroma subsampling               : 4:2:0
Bit depth                        : 8 bits
Scan type                        : Progressive
Compression mode                 : Lossy
Bits/(Pixel*Frame)               : 0.252
Stream size                      : 1.11 GiB (82%)
Writing library                  : XviD 64

Audio
ID                               : 1
Format                           : AC-3
Format/Info                      : Audio Coding 3
Mode extension                   : CM (complete main)
Codec ID                         : 2000
Duration                         : 1h 31mn
Bit rate mode                    : Constant
Bit rate                         : 384 Kbps
Channel(s)                       : 6 channels
Channel positions                : Front: L C R, Side: L R, LFE
Sampling rate                    : 48.0 KHz
Bit depth                        : 16 bits
Compression mode                 : Lossy
Stream size                      : 252 MiB (18%)
Alignment                        : Aligned on interleaves
Interleave, duration             : 42 ms (1.00 video frame)
Interleave, preload duration     : 512 ms




NOTES:

very nice source too be honest......
All we've done it ripped the 720p and added the 5.1 track back to our encode.....we also tweaked the contrast and chroma slightly
aswell as using a heavy noise filter and finally adding some sharpness back to it.


SCREENS:

[IMG]http://i.imgur.com/5rC9q.png[/IMG]
[IMG]http://i.imgur.com/FSCoB.png[/IMG]
[IMG]http://i.imgur.com/0npWC.png[/IMG]
[IMG]http://i.imgur.com/7xsjY.png[/IMG]
[IMG]http://i.imgur.com/8Qnq8.png[/IMG]


GREETZ: 

Past,Present and Future

[IMG]http://i.imgur.com/2mcr9.png[/IMG]